<?xml version="1.0" encoding="utf-8"?>
<!-- Generator: Adobe Illustrator 23.0.1, SVG Export Plug-In . SVG Version: 6.00 Build 0)  -->
<svg version="1.1" id="Layer_1" xmlns="http://www.w3.org/2000/svg" xmlns:xlink="http://www.w3.org/1999/xlink" x="0px" y="0px"
	 viewBox="0 0 225.77 187.24" style="enable-background:new 0 0 225.77 187.24;" xml:space="preserve">
<g>
	<path d="M172.94,3.46c-3.85,0.32-7.74,0.61-11.54,0.87c-19.15,1.32-38.6,1.99-57.8,1.99c-26.89,0-54.1-1.31-80.88-3.89
		c-3.85-0.37-7.73-0.77-11.52-1.19L0,0v169.47l11.2-1.23c3.78-0.42,7.65-0.82,11.52-1.19l9.12-0.88V88.34
		c23.85,0.18,47.96,0.27,71.76,0.27c19.31,0,39.01-0.06,58.56-0.18l21.7-0.15V2.56L172.94,3.46z M152,37.81v17.83
		c-16.12,0.25-32.37,0.38-48.4,0.38c-23.84,0-47.95-0.28-71.76-0.83V36.47c23.82,1.63,47.92,2.45,71.75,2.45
		C119.65,38.92,135.9,38.55,152,37.81"/>
	<path d="M52.83,183.78c3.85-0.32,7.74-0.61,11.54-0.87c19.15-1.32,38.6-1.99,57.8-1.99c26.89,0,54.1,1.31,80.88,3.89
		c3.85,0.37,7.73,0.77,11.52,1.19l11.2,1.24V17.78l-11.2,1.23c-3.78,0.42-7.65,0.82-11.52,1.19l-9.12,0.88V98.9
		c-23.85-0.18-47.96-0.27-71.76-0.27c-19.31,0-39.01,0.06-58.56,0.18l-21.7,0.15v85.72L52.83,183.78z M73.77,149.43v-17.83
		c16.12-0.25,32.37-0.38,48.4-0.38c23.84,0,47.95,0.28,71.76,0.83v18.71c-23.82-1.63-47.92-2.45-71.75-2.45
		C106.12,148.32,89.87,148.69,73.77,149.43"/>
</g>
</svg>
