<?xml version="1.0" encoding="utf-8"?>
<!-- Generator: Adobe Illustrator 23.0.1, SVG Export Plug-In . SVG Version: 6.00 Build 0)  -->
<svg version="1.1" id="Layer_1" xmlns="http://www.w3.org/2000/svg" xmlns:xlink="http://www.w3.org/1999/xlink" x="0px" y="0px"
	 viewBox="0 0 720 187.25" style="enable-background:new 0 0 720 187.25;" xml:space="preserve">
<g>
	<path d="M243.37,1.94h48.39c28.55,0,46.94,14.68,46.94,39.68v0.32c0,26.61-20.48,40.65-48.55,40.65h-15.48v32.26h-31.3V1.94z
		 M289.51,58.07c11.13,0,17.9-5.81,17.9-14.68v-0.33c0-9.68-6.78-14.84-18.07-14.84h-14.67v29.84H289.51z"/>
	<path d="M345.47,1.94h53.39c17.26,0,29.19,4.52,36.77,12.26c6.61,6.45,10,15.16,10,26.29v0.32c0,17.26-9.19,28.71-23.23,34.68
		l26.94,39.36h-36.13l-22.74-34.19h-0.33h-13.38v34.19h-31.3V1.94z M397.41,56.14c10.64,0,16.77-5.16,16.77-13.39v-0.32
		c0-8.87-6.45-13.39-16.94-13.39h-20.48v27.1H397.41z"/>
	<rect x="455.64" y="1.94" width="31.45" height="112.91"/>
	<path d="M492.74,98.08l17.42-20.81c11.13,8.87,23.55,13.55,36.61,13.55c8.39,0,12.91-2.9,12.91-7.74v-0.32
		c0-4.68-3.71-7.26-19.04-10.81c-24.03-5.49-42.58-12.26-42.58-35.49v-0.32C498.06,15.16,514.67,0,541.77,0
		c19.19,0,34.2,5.16,46.45,15l-15.65,22.1c-10.32-7.26-21.61-11.13-31.62-11.13c-7.58,0-11.29,3.23-11.29,7.26v0.32
		c0,5.16,3.87,7.42,19.52,10.97c25.97,5.64,42.1,14.03,42.1,35.16v0.32c0,23.07-18.22,36.78-45.65,36.78
		C525.64,116.79,506.61,110.5,492.74,98.08"/>
	<polygon points="599.99,1.94 633.06,1.94 659.99,45.65 686.93,1.94 720,1.94 720,114.85 688.87,114.85 688.87,50 659.99,94.2 
		659.35,94.2 630.64,50.33 630.64,114.85 599.99,114.85 	"/>
	<path d="M243.38,126.22h22.37c18.86,0,31.89,12.94,31.89,29.83v0.17c0,16.89-13.03,30-31.89,30h-22.37V126.22z M265.74,176.62
		c12.6,0,20.83-8.49,20.83-20.23v-0.17c0-11.74-8.23-20.4-20.83-20.4h-11.83v40.8H265.74z"/>
	<polygon points="325.87,126.22 370.36,126.22 370.36,135.65 336.42,135.65 336.42,151.24 366.5,151.24 366.5,160.67 336.42,160.67 
		336.42,176.79 370.78,176.79 370.78,186.22 325.87,186.22 	"/>
	<path d="M394.74,177.48l6.34-7.54c5.74,4.97,11.48,7.8,18.94,7.8c6.52,0,10.63-3,10.63-7.54v-0.17c0-4.28-2.4-6.6-13.54-9.17
		c-12.77-3.09-19.97-6.86-19.97-17.92v-0.17c0-10.29,8.57-17.4,20.48-17.4c8.74,0,15.69,2.65,21.77,7.54l-5.65,7.97
		c-5.4-4.03-10.8-6.17-16.29-6.17c-6.17,0-9.77,3.17-9.77,7.12v0.17c0,4.63,2.74,6.69,14.23,9.43c12.69,3.09,19.29,7.63,19.29,17.57
		v0.17c0,11.23-8.83,17.92-21.43,17.92C410.6,187.08,401.94,183.91,394.74,177.48"/>
	<rect x="469.69" y="126.22" width="10.54" height="60"/>
	<path d="M509.05,156.39v-0.17c0-16.8,12.86-31.03,30.94-31.03c10.46,0,16.88,2.92,23.06,8.14l-6.69,7.97
		c-4.63-3.94-9.17-6.43-16.8-6.43c-11.06,0-19.45,9.69-19.45,21.17v0.17c0,12.34,8.14,21.43,20.4,21.43c5.66,0,10.8-1.8,14.48-4.54
		v-11.23h-15.34v-9.17h25.55v25.2c-5.92,5.06-14.4,9.35-25.03,9.35C521.4,187.25,509.05,173.88,509.05,156.39"/>
	<polygon points="594.38,126.22 604.15,126.22 636.3,167.7 636.3,126.22 646.67,126.22 646.67,186.22 637.84,186.22 604.75,143.53 
		604.75,186.22 594.38,186.22 	"/>
	<path d="M673.54,177.48l6.34-7.54c5.74,4.97,11.48,7.8,18.94,7.8c6.52,0,10.63-3,10.63-7.54v-0.17c0-4.28-2.4-6.6-13.54-9.17
		c-12.77-3.09-19.97-6.86-19.97-17.92v-0.17c0-10.29,8.57-17.4,20.48-17.4c8.74,0,15.69,2.65,21.77,7.54l-5.65,7.97
		c-5.4-4.03-10.8-6.17-16.29-6.17c-6.17,0-9.77,3.17-9.77,7.12v0.17c0,4.63,2.74,6.69,14.23,9.43c12.69,3.09,19.29,7.63,19.29,17.57
		v0.17c0,11.23-8.83,17.92-21.43,17.92C689.4,187.08,680.74,183.91,673.54,177.48"/>
	<path d="M172.94,3.47c-3.85,0.32-7.74,0.61-11.54,0.87c-19.15,1.32-38.6,1.99-57.8,1.99c-26.89,0-54.1-1.31-80.88-3.89
		c-3.85-0.37-7.73-0.77-11.52-1.19L0,0.01v169.47l11.2-1.23c3.78-0.42,7.65-0.82,11.52-1.19l9.12-0.88V88.34
		c23.85,0.18,47.96,0.27,71.76,0.27c19.31,0,39.01-0.06,58.56-0.18l21.7-0.15V2.56L172.94,3.47z M152,37.81v17.83
		c-16.12,0.25-32.37,0.38-48.4,0.38c-23.84,0-47.95-0.28-71.76-0.83V36.48c23.82,1.63,47.92,2.45,71.75,2.45
		C119.65,38.93,135.9,38.56,152,37.81"/>
	<path d="M52.83,183.79c3.85-0.32,7.74-0.61,11.54-0.87c19.15-1.32,38.6-1.99,57.8-1.99c26.89,0,54.1,1.31,80.88,3.89
		c3.85,0.37,7.73,0.77,11.52,1.19l11.2,1.24V17.78l-11.2,1.23c-3.78,0.42-7.65,0.82-11.52,1.19l-9.12,0.88v77.82
		c-23.85-0.18-47.96-0.27-71.76-0.27c-19.31,0-39.01,0.06-58.56,0.18l-21.7,0.15v85.72L52.83,183.79z M73.77,149.44v-17.83
		c16.12-0.25,32.37-0.38,48.4-0.38c23.84,0,47.95,0.28,71.76,0.83v18.71c-23.82-1.63-47.92-2.45-71.75-2.45
		C106.12,148.33,89.87,148.7,73.77,149.44"/>
</g>
</svg>
